<svg width="23" height="23" viewBox="0 0 23 23" fill="none" xmlns="http://www.w3.org/2000/svg">
<path d="M2.875 16.5316V20.1254H6.46875L17.0679 9.52622L13.4742 5.93247L2.875 16.5316ZM19.8471 6.74706C19.9359 6.6584 20.0064 6.55309 20.0545 6.43715C20.1026 6.32122 20.1273 6.19694 20.1273 6.07143C20.1273 5.94592 20.1026 5.82164 20.0545 5.70571C20.0064 5.58977 19.9359 5.48446 19.8471 5.39581L17.6046 3.15331C17.5159 3.06446 17.4106 2.99398 17.2947 2.94589C17.1788 2.8978 17.0545 2.87305 16.929 2.87305C16.8034 2.87305 16.6792 2.8978 16.5632 2.94589C16.4473 2.99398 16.342 3.06446 16.2533 3.15331L14.4996 4.90706L18.0933 8.50081L19.8471 6.74706Z" fill="white"/>
</svg>
