<svg width="19" height="19" viewBox="0 0 19 19" fill="none" xmlns="http://www.w3.org/2000/svg">
<g clip-path="url(#clip0_34_3322)">
<path d="M18.5838 9.67772C18.5838 8.8993 18.5206 8.33126 18.3839 7.74219H9.49512V11.2556H14.7126C14.6075 12.1287 14.0395 13.4436 12.7771 14.3272L12.7594 14.4448L15.5699 16.6221L15.7646 16.6415C17.5529 14.99 18.5838 12.56 18.5838 9.67772Z" fill="#4285F4"/>
<path d="M9.49465 18.9348C12.0508 18.9348 14.1967 18.0932 15.7641 16.6416L12.7766 14.3273C11.9772 14.8848 10.9042 15.274 9.49465 15.274C6.99107 15.274 4.86619 13.6225 4.10873 11.3398L3.9977 11.3493L1.07533 13.6109L1.03711 13.7172C2.59395 16.8098 5.79182 18.9348 9.49465 18.9348Z" fill="#34A853"/>
<path d="M4.10928 11.3392C3.90942 10.7502 3.79375 10.1189 3.79375 9.46678C3.79375 8.81455 3.90942 8.18341 4.09876 7.59434L4.09347 7.46888L1.13447 5.1709L1.03766 5.21695C0.396011 6.50032 0.027832 7.94149 0.027832 9.46678C0.027832 10.9921 0.396011 12.4332 1.03766 13.7165L4.10928 11.3392Z" fill="#FBBC05"/>
<path d="M9.49465 3.66069C11.2724 3.66069 12.4716 4.4286 13.1553 5.07032L15.8272 2.46152C14.1863 0.936221 12.0508 0 9.49465 0C5.79182 0 2.59395 2.12488 1.03711 5.21753L4.09821 7.59492C4.86619 5.31224 6.99107 3.66069 9.49465 3.66069Z" fill="#EB4335"/>
</g>
<defs>
<clipPath id="clip0_34_3322">
<rect width="18.62" height="19" fill="white"/>
</clipPath>
</defs>
</svg>
