<svg width="45" height="44" viewBox="0 0 45 44" fill="none" xmlns="http://www.w3.org/2000/svg">
<path d="M22.1374 30.9512C19.5763 30.9512 19.2744 30.9377 18.2749 30.894C17.4955 30.8684 16.7262 30.7102 16.0002 30.4262C14.7439 29.938 13.7505 28.9457 13.2621 27.691C12.9886 26.9634 12.8411 26.1945 12.8259 25.4174C12.7676 24.4215 12.7676 24.0951 12.7676 21.5575C12.7676 18.9928 12.7811 18.6934 12.8259 17.7006C12.8414 16.9246 12.9889 16.1568 13.2621 15.4301C13.75 14.1738 14.745 13.1806 16.0033 12.6939C16.7306 12.4197 17.4997 12.272 18.277 12.2573C19.2713 12.2012 19.5982 12.2012 22.1374 12.2012C24.7193 12.2012 25.016 12.2147 25.9998 12.2573C26.7792 12.2721 27.5502 12.4198 28.2798 12.6939C29.5377 13.1812 30.5325 14.1742 31.021 15.4301C31.2991 16.1674 31.4474 16.9472 31.4593 17.7349C31.5176 18.7308 31.5176 19.0562 31.5176 21.5928C31.5176 24.1294 31.503 24.4621 31.4593 25.4466C31.4438 26.2244 31.2959 26.9939 31.022 27.7222C30.5324 28.9777 29.5375 29.9704 28.2798 30.4584C27.5513 30.731 26.7818 30.8783 26.004 30.894C25.0097 30.9512 24.6839 30.9512 22.1374 30.9512ZM22.102 13.8468C19.5555 13.8468 19.291 13.8593 18.2968 13.904C17.7034 13.9119 17.1157 14.0212 16.5592 14.2273C15.7375 14.5413 15.0874 15.1879 14.7696 16.0071C14.5616 16.5688 14.4521 17.1621 14.4458 17.7609C14.3906 18.7682 14.3906 19.0323 14.3906 21.5575C14.3906 24.0525 14.4 24.355 14.4458 25.3561C14.4551 25.9489 14.5646 26.5358 14.7696 27.0922C15.0878 27.9109 15.7379 28.557 16.5592 28.871C17.1153 29.0784 17.7032 29.1878 18.2968 29.1943C19.3046 29.2525 19.57 29.2525 22.102 29.2525C24.6558 29.2525 24.9202 29.24 25.9061 29.1943C26.4999 29.1871 27.0881 29.0777 27.6447 28.871C28.4614 28.5543 29.1074 27.9096 29.425 27.0943C29.6326 26.5321 29.7421 25.9386 29.7488 25.3395H29.7602C29.805 24.3456 29.805 24.0805 29.805 21.5408C29.805 19.0011 29.7935 18.7339 29.7488 17.7411C29.7394 17.149 29.63 16.5628 29.425 16.0071C29.1081 15.1906 28.4621 14.5447 27.6447 14.2273C27.0882 14.0202 26.5 13.9108 25.9061 13.904C24.8994 13.8468 24.636 13.8468 22.102 13.8468ZM22.1374 26.3593C20.1905 26.3606 18.4347 25.1905 17.6887 23.3949C16.9427 21.5992 17.3535 19.5316 18.7295 18.1564C20.1055 16.7812 22.1757 16.3692 23.9746 17.1125C25.7735 17.8559 26.9468 19.6082 26.9472 21.5523C26.9443 24.2043 24.7933 26.3542 22.1374 26.3593ZM22.1374 18.4314C20.4124 18.4314 19.0141 19.8277 19.0141 21.5502C19.0141 23.2726 20.4124 24.6689 22.1374 24.6689C23.8623 24.6689 25.2606 23.2726 25.2606 21.5502C25.2566 19.8294 23.8606 18.4354 22.1374 18.4314ZM27.1346 17.6902C26.5156 17.6879 26.0153 17.1856 26.0165 16.5674C26.0176 15.9493 26.5197 15.4489 27.1388 15.4489C27.7578 15.4489 28.2599 15.9493 28.2611 16.5674C28.2613 16.8657 28.1427 17.1517 27.9313 17.3624C27.7199 17.5731 27.4332 17.691 27.1346 17.6902Z" fill="#111827"/>
</svg>
