<svg width="195" height="154" viewBox="0 0 195 154" fill="none" xmlns="http://www.w3.org/2000/svg">
<path fill-rule="evenodd" clip-rule="evenodd" d="M40.571 2.99308C35.0023 6.32924 33.1756 8.99717 34.0293 12.5507C35.0185 16.6668 40.4173 15.5448 42.8016 10.7276C44.9749 6.33821 47.0001 -0.00996183 46.2248 1.17376e-05C45.8543 0.00599588 43.3096 1.35243 40.571 2.99308ZM149.153 0.793908C149.153 3.38504 152.435 11.0238 154.36 12.9128C159.054 17.5186 163.75 13.0963 160.19 7.42134C158.645 4.95787 149.153 -0.742021 149.153 0.793908ZM22.59 12.5797C18.6818 17.5605 17.8969 21.901 20.4254 24.542C21.7249 25.8984 22.1432 25.7288 24.4043 22.9213C26.5145 20.3022 26.9308 18.8112 26.9308 13.8772C26.9308 10.6278 26.7676 7.96989 26.568 7.96989C26.3694 7.96989 24.579 10.0444 22.59 12.5797ZM168.291 13.6279C168.257 18.8321 168.633 20.2603 170.722 22.8534C173.784 26.6544 174.405 26.6723 175.86 23.004C177.349 19.248 176.737 17.4438 172.115 11.9593L168.331 7.47121L168.291 13.6279ZM29.1442 20.1875C23.881 26.0001 19.0485 33.2758 16.0636 39.8853C13.346 45.9004 13.135 47.16 13.1436 57.339C13.1512 67.3754 13.4167 69.0031 16.2584 76.4494C19.7579 85.6171 28.2409 100.26 34.3329 107.646C39.5818 114.01 51.8374 122.487 63.7913 128.024C75.857 133.612 82.8131 137.862 87.3258 142.406L90.9065 146.01V143.418C90.9065 140.345 86.1141 136.811 74.1965 131.099C57.1369 122.919 54.194 121.239 46.9629 115.548C29.466 101.777 17.7766 82.3039 15.4372 63.03C13.7242 48.9223 16.964 38.3923 27.3911 24.1769C30.3082 20.1995 32.5569 16.9461 32.3869 16.9461C32.2179 16.9461 30.7589 18.4042 29.1442 20.1875ZM152.018 18.3693C152.018 20.1496 155.126 24.9619 157.786 27.2997C160.017 29.2605 161.816 29.9117 165.006 29.9117H169.254L167.778 26.9286C165.952 23.2424 163.186 21.3684 158.224 20.4598C156.124 20.0748 153.868 19.2959 153.211 18.7294C152.555 18.1629 152.018 18.0013 152.018 18.3693ZM168.838 25.4236C176.464 36.6718 179.54 43.9376 180.233 52.3523C182.589 80.9106 159.774 114.077 128.423 127.666C112.173 134.709 104.275 139.991 104.275 143.815C104.275 145.593 104.721 145.417 107.975 142.346C112.759 137.831 118.342 134.451 131.397 128.166C150.233 119.098 159.239 111.704 167.664 98.3912C187.439 67.1441 187.537 44.3325 167.987 22.5303L163.427 17.4448L168.838 25.4236ZM36.4795 20.5645C31.2411 22.0027 26.9308 25.5722 26.9308 28.4716C26.9308 29.4819 28.048 29.9117 30.6768 29.9117C34.902 29.9117 39.4052 26.6304 41.7904 21.8142C43.3955 18.5718 43.5788 18.6147 36.4795 20.5645ZM10.9331 25.9203C7.21583 32.9307 7.00958 36.7845 10.1511 40.5775L12.4695 43.376L14.4269 38.8879C16.6871 33.7077 16.7663 32.2874 15.1899 25.2431L14.0335 20.0758L10.9331 25.9203ZM179.844 26.9027C178.705 33.3377 178.76 34.1256 180.663 38.5897L182.702 43.376L185.024 40.5775C187.99 37.0049 187.982 33.1123 184.999 27.1361C181.195 19.5173 181.152 19.5163 179.844 26.9027ZM159.189 33.0903C161.317 40.6014 167.428 45.8694 174.013 45.8694C176.647 45.8694 176.898 45.6221 176.293 43.6254C174.915 39.0744 172.725 36.9212 167.448 34.9314C164.476 33.8094 161.254 32.4181 160.29 31.8376C158.748 30.9121 158.615 31.0647 159.189 33.0903ZM29.8928 33.9999C24.1856 36.0525 21.6696 38.0412 19.672 42.0775C17.8291 45.7996 17.8721 45.8694 22.0152 45.8694C26.7017 45.8694 31.4836 42.5582 34.3005 37.362C37.6644 31.1584 37.7055 31.1893 29.8928 33.9999ZM3.67234 42.628C3.34673 44.6856 3.07555 48.4596 3.06982 51.0168C3.06123 55.0142 3.48137 56.0365 6.06904 58.3105C9.73571 61.5339 10.6619 60.5555 10.6839 53.4374C10.6953 49.6414 10.0308 47.4503 7.73432 43.7132C6.10342 41.0592 4.65585 38.8879 4.51739 38.8879C4.37798 38.8879 3.99795 40.5715 3.67234 42.628ZM187.529 44.0413C185.365 47.9928 184.487 50.8672 184.497 53.97C184.52 60.7271 185.554 61.5848 189.373 58.0172C192.35 55.2356 192.583 54.5923 192.385 49.6883C192.267 46.7651 191.812 43.0479 191.373 41.4272L190.576 38.48L187.529 44.0413ZM29.7525 45.4246C29.0545 46.3033 26.4754 48.0856 24.0204 49.3841C19.4715 51.7927 16.4274 56.3407 16.4274 60.7311C16.4274 63.2344 16.4875 63.2424 20.9802 61.2806C26.2605 58.9767 28.7346 56.0315 30.3913 50.0803C31.9897 44.3375 31.7873 42.8634 29.7525 45.4246ZM163.976 47.1221C165.26 53.5092 168.489 58.2127 173.302 60.7061C175.819 62.0087 178.125 62.8155 178.43 62.4974C179.552 61.3255 177.611 54.5813 175.589 52.6295C174.442 51.5205 171.212 49.0999 168.415 47.2498L163.327 43.8867L163.976 47.1221ZM25.2598 63.5775C19.7837 68.8984 19.292 69.7192 19.292 73.5291V77.6811L22.1317 76.6469C27.8828 74.5524 32.5063 66.3482 31.5495 59.9332C31.2621 58.0123 30.5822 58.4062 25.2598 63.5775ZM163.476 60.6582C163.476 67.4562 168.732 75.6425 174.022 77.0887C175.628 77.5265 175.884 77.0867 175.856 73.951C175.81 69.058 174.426 66.797 168.489 61.9139L163.476 57.7908V60.6582ZM2.09491 67.2777C4.30923 75.3663 4.51357 75.6934 8.39699 77.3879C12.6815 79.2579 13.5628 79.1502 13.5628 76.7556C13.5628 72.5487 10.8309 68.0985 6.04517 64.506C3.3496 62.4844 0.961488 60.8298 0.737096 60.8298C0.512704 60.8298 1.12381 63.7311 2.09491 67.2777ZM189.4 64.4053C184.35 67.9569 181.618 72.3213 181.618 76.8344C181.618 78.6845 181.996 78.858 184.722 78.2656C189.256 77.2782 191.147 74.8387 193.112 67.4343C194.076 63.8019 194.779 60.8298 194.674 60.8298C194.569 60.8298 192.196 62.4385 189.4 64.4053ZM159.297 68.3509C158.21 71.307 158.682 80.8358 160.049 83.5695C161.935 87.3395 166.935 92.0979 168.173 91.299C168.74 90.933 169.205 88.2721 169.205 85.3857C169.205 80.8218 168.766 79.603 165.834 76.0245C163.979 73.7625 161.884 70.7455 161.177 69.3223C160.125 67.2059 159.782 67.0284 159.297 68.3509ZM34.5697 68.6062C34.5697 69.2634 33.1279 71.4846 31.3652 73.5431C27.0387 78.5977 25.9731 80.9574 25.9903 85.4485C26.0123 91.1175 27.1256 92.44 29.9826 90.189C34.5678 86.5765 35.9495 83.5905 36.3353 76.4614C36.5625 72.2605 36.2942 69.2136 35.6373 68.5274C34.8505 67.7056 34.5697 67.7265 34.5697 68.6062ZM151.64 81.7743C148.259 90.3974 149.643 99.1482 155.254 104.624L157.717 107.026L159.164 103.409C161.363 97.9125 160.929 94.0328 157.373 87.3555C155.591 84.0113 153.968 80.378 153.766 79.2809C153.49 77.7819 152.962 78.4012 151.64 81.7743ZM5.86565 84.6028C9.94005 92.9686 11.8756 94.7399 16.942 94.7399C21.5349 94.7399 21.9236 94.1036 19.8668 89.9506C17.8711 85.9183 15.4343 83.9964 8.96609 81.3484L3.1147 78.9528L5.86565 84.6028ZM38.1505 86.6294C34.1973 95.1787 33.8488 97.9983 36.0622 103.499L37.5537 107.207L40.7782 103.547C44.4478 99.3826 46.4329 93.0634 45.5306 88.4227C44.6741 84.0173 42.8828 78.7722 42.2554 78.8331C41.967 78.862 40.1203 82.3697 38.1505 86.6294ZM188.78 80.3141C187.204 81.0253 184.469 82.1692 182.7 82.8574C179.521 84.0941 173.979 90.7884 173.979 93.3935C173.979 95.5358 182.173 95.1578 184.319 92.9167C186.285 90.8632 192.512 79.8354 191.985 79.3417C191.798 79.1652 190.355 79.603 188.78 80.3141ZM48.8697 94.4557C48.8564 96.5322 48.4181 100.169 47.8948 102.537C46.6459 108.194 48.0209 113.442 51.7238 117.147L54.5846 120.01L56.036 116.384C58.9626 109.065 57.3718 100.768 51.7601 94.0926L48.8927 90.6807L48.8697 94.4557ZM143.04 94.7888C137.58 101.572 136.378 108.218 139.254 115.724L140.812 119.794L143.528 117.076C147.527 113.074 148.636 108.672 147.362 101.862C146.783 98.7672 146.197 95.1359 146.06 93.7914C145.814 91.3788 145.775 91.3918 143.04 94.7888ZM13.9466 102.492C19.6806 110.115 21.9551 111.699 27.1361 111.68C33.0773 111.657 33.8956 110.789 31.5791 106.968C28.9876 102.692 24.2983 99.8264 18.1595 98.7672C15.3684 98.2855 12.2413 97.5455 11.2091 97.1236C9.93909 96.605 10.8252 98.3424 13.9466 102.492ZM184.379 97.1755C184.147 97.4178 181.222 98.0761 177.88 98.6386C171.21 99.7606 166.912 102.312 163.676 107.069C161.721 109.943 161.688 110.224 163.236 110.863C166.252 112.11 172.558 111.726 174.691 110.165C176.633 108.744 186.008 96.7346 185.175 96.7346C184.97 96.7346 184.611 96.9331 184.379 97.1755ZM61.7537 100.359C62.1595 101.382 62.7992 105.586 63.1745 109.7C63.5507 113.814 64.5428 118.557 65.3802 120.238C66.9959 123.485 74.2843 129.389 75.3289 128.298C75.6698 127.942 76.1434 125.21 76.3802 122.227C76.7135 118.019 76.3382 115.785 74.7035 112.257C72.7432 108.028 67.0532 101.927 62.8317 99.5292C61.2743 98.6436 61.1216 98.7623 61.7537 100.359ZM128.487 102.725C121.417 108.356 119.18 112.682 119.123 120.838C119.096 124.494 119.403 127.829 119.803 128.248C120.98 129.476 128.269 123.473 130.196 119.69C131.243 117.634 131.966 114.167 131.966 111.205C131.966 108.451 132.388 104.659 132.904 102.779C133.42 100.899 133.732 99.245 133.598 99.1043C133.464 98.9637 131.163 100.593 128.487 102.725ZM25.976 119.749C35.3766 128.148 40.1089 129.65 45.9058 126.074C49.3166 123.968 49.0846 123.382 43.3401 119.576C39.3765 116.951 38.2116 116.686 30.8019 116.723L22.634 116.763L25.976 119.749ZM155.837 117.37C153.448 118.256 147.243 122.88 147.243 123.776C147.243 125.446 152.051 127.852 155.385 127.852C158.9 127.852 163.006 125.463 169.205 119.81L172.547 116.763L164.908 116.801C160.707 116.822 156.625 117.078 155.837 117.37ZM49.3701 130.711C47.7946 131.266 44.7868 132.082 42.6861 132.526L38.8666 133.333L46.2219 137.064C57.5857 142.829 63.1535 142.763 68.3203 136.798C70.0505 134.802 70.0151 134.737 66.0477 132.623C61.4052 130.148 53.5323 129.246 49.3701 130.711ZM133.87 130.579C132.553 130.998 130.052 132.109 128.311 133.049C124.694 135.003 125.09 136.107 130.704 139.732C134.919 142.452 138.796 141.965 148.51 137.493C155.98 134.053 157.477 132.647 153.689 132.628C152.507 132.623 149.431 131.949 146.853 131.132C141.822 129.539 137.698 129.363 133.87 130.579ZM42.0434 153.335C72.6754 153.48 122.519 153.48 152.807 153.335C183.096 153.188 158.033 153.068 97.1131 153.069C36.193 153.069 11.4115 153.188 42.0434 153.335Z" fill="#EC1D88"/>
</svg>
