<svg width="59" height="59" viewBox="0 0 59 59" fill="none" xmlns="http://www.w3.org/2000/svg">
<path d="M46.708 57.2795L45.233 56.0503C40.3163 51.3795 36.8747 48.4295 36.8747 44.742C36.8747 41.792 39.333 39.3337 42.283 39.3337C44.0038 39.3337 45.7247 40.0712 46.708 41.3003C47.6913 40.0712 49.4122 39.3337 51.133 39.3337C54.083 39.3337 56.5413 41.5462 56.5413 44.742C56.5413 48.4295 53.0997 51.3795 48.183 56.0503L46.708 57.2795ZM14.7497 54.0837C13.4457 54.0837 12.1951 53.5657 11.2731 52.6436C10.351 51.7215 9.83301 50.471 9.83301 49.167V9.83366C9.83301 7.10491 12.0209 4.91699 14.7497 4.91699H17.208V22.1253L23.3538 18.4378L29.4997 22.1253V4.91699H44.2497C45.5537 4.91699 46.8042 5.435 47.7263 6.35705C48.6483 7.2791 49.1663 8.52968 49.1663 9.83366V32.1553L46.708 31.9587C44.1195 31.9607 41.577 32.6434 39.3356 33.9382C37.0942 35.233 35.2326 37.0944 33.9377 39.3357C32.6427 41.577 31.9598 44.1194 31.9575 46.7079C31.9553 49.2965 32.6336 51.8401 33.9247 54.0837H14.7497Z" fill="white"/>
</svg>
