<svg width="25" height="25" viewBox="0 0 25 25" fill="none" xmlns="http://www.w3.org/2000/svg">
<g clip-path="url(#clip0_34_3425)">
<path fill-rule="evenodd" clip-rule="evenodd" d="M18.3235 6.03631L5.73138 10.5909L9.92614 13.0194L13.6255 9.32005C14.016 8.92953 14.6492 8.92953 15.0397 9.32005C15.4302 9.71058 15.4302 10.3437 15.0397 10.7342L11.3403 14.4336L13.7689 18.6284L18.3235 6.03631ZM18.6463 3.79274C19.8418 3.36032 20.9995 4.51798 20.567 5.71351L15.2845 20.318C14.851 21.5167 13.2145 21.6626 12.5758 20.5594L9.35817 15.0016L3.80038 11.7839C2.69721 11.1453 2.84302 9.50882 4.04173 9.07524L18.6463 3.79274Z" fill="white"/>
</g>
<defs>
<clipPath id="clip0_34_3425">
<rect width="24" height="24" fill="white" transform="translate(0.332031 0.0273438)"/>
</clipPath>
</defs>
</svg>
