<svg width="45" height="44" viewBox="0 0 45 44" fill="none" xmlns="http://www.w3.org/2000/svg">
<mask id="mask0_161_4403" style="mask-type:luminance" maskUnits="userSpaceOnUse" x="12" y="12" width="21" height="20">
<path d="M12.5713 12H32.5713V32H12.5713V12Z" fill="white"/>
</mask>
<g mask="url(#mask0_161_4403)">
<path d="M17.4286 15.7782C16.9286 16.8982 17.1261 18.9048 17.2061 20.3082C16.6661 20.6073 15.9728 20.0823 15.5803 20.0823C15.1719 20.0823 14.6844 20.3507 14.6078 20.7507C14.5528 21.039 14.6819 21.459 15.6086 21.8248C15.9669 21.9665 16.8194 22.1332 17.0169 22.5982C17.2944 23.2515 15.5919 26.2673 12.9186 26.7073C12.8177 26.724 12.7265 26.7774 12.6625 26.8572C12.5985 26.937 12.5662 27.0377 12.5719 27.1398C12.6186 27.9523 14.4403 28.2706 15.2478 28.3956C15.3303 28.5073 15.3969 28.979 15.5028 29.3382C15.5503 29.499 15.6728 29.6915 15.9878 29.6915C16.3986 29.6915 17.0811 29.3748 18.2694 29.5715C19.4344 29.7656 20.5294 31.4173 22.6319 31.4173C24.5861 31.4173 25.7519 29.7582 26.8736 29.5715C27.5228 29.464 28.0803 29.4981 28.7036 29.6198C29.1328 29.704 29.5178 29.7507 29.6403 29.329C29.7478 28.9648 29.8136 28.5023 29.8944 28.3931C30.6944 28.269 32.5244 27.9515 32.5703 27.139C32.5759 27.0368 32.5437 26.9362 32.4797 26.8564C32.4157 26.7765 32.3245 26.7232 32.2236 26.7065C29.5953 26.2731 27.8411 23.2665 28.1253 22.5973C28.3219 22.1332 29.1686 21.9682 29.5336 21.824C30.2119 21.5565 30.5519 21.2273 30.5444 20.8465C30.5353 20.359 29.9486 20.0682 29.5169 20.0682C29.0778 20.0682 28.4469 20.5882 27.9361 20.3065C28.0161 18.8915 28.2128 16.894 27.7136 15.7748C26.7678 13.6557 24.6636 12.584 22.5603 12.584C20.4703 12.584 18.3819 13.6407 17.4286 15.7782Z" fill="black"/>
</g>
</svg>
