<svg width="45" height="44" viewBox="0 0 45 44" fill="none" xmlns="http://www.w3.org/2000/svg">
<path fill-rule="evenodd" clip-rule="evenodd" d="M24.2376 13.667C24.6797 13.667 25.1036 13.8426 25.4161 14.1551C25.7287 14.4677 25.9043 14.8916 25.9043 15.3337C25.9047 15.9096 26.1037 16.4678 26.4678 16.914C26.8318 17.3603 27.3385 17.6675 27.9026 17.7837C28.3358 17.8716 28.7163 18.1281 28.9604 18.4966C29.2045 18.8651 29.2923 19.3155 29.2043 19.7487C29.1163 20.1818 28.8599 20.5623 28.4914 20.8065C28.1229 21.0506 27.6725 21.1383 27.2393 21.0503C26.7779 20.9564 26.3296 20.8067 25.9043 20.6045V25.3337C25.9043 26.2689 25.6419 27.1853 25.1471 27.9789C24.6523 28.7724 23.9449 29.4114 23.1052 29.823C22.2654 30.2346 21.3271 30.4025 20.3967 30.3076C19.4664 30.2127 18.5813 29.8587 17.842 29.286C17.1027 28.7132 16.5389 27.9446 16.2146 27.0674C15.8903 26.1902 15.8185 25.2397 16.0073 24.3238C16.1961 23.4079 16.6381 22.5632 17.2829 21.8859C17.9277 21.2086 18.7496 20.7256 19.6551 20.492C20.0805 20.3894 20.5291 20.4582 20.9042 20.6835C21.2792 20.9089 21.5506 21.2726 21.6598 21.6963C21.769 22.12 21.7072 22.5697 21.4877 22.9482C21.2683 23.3267 20.9087 23.6037 20.4868 23.7195C20.0961 23.8232 19.7563 24.0651 19.5306 24.4005C19.3049 24.7358 19.2087 25.1417 19.2597 25.5426C19.3107 25.9436 19.5056 26.3124 19.8081 26.5805C20.1106 26.8486 20.5001 26.9978 20.9043 27.0003C21.3463 27.0003 21.7702 26.8247 22.0828 26.5122C22.3954 26.1996 22.571 25.7757 22.571 25.3337V15.3337C22.571 14.8916 22.7466 14.4677 23.0591 14.1551C23.3717 13.8426 23.7956 13.667 24.2376 13.667Z" fill="black"/>
</svg>
